<svg width="46" height="50" viewBox="0 0 46 50" fill="none" xmlns="http://www.w3.org/2000/svg">
<path d="M32.3156 31.5108V11.781C32.3156 9.20129 30.2169 7.10266 27.6372 7.10266H13.8264C11.2467 7.10266 9.14807 9.20139 9.14807 11.781V31.5108C9.14807 34.0905 11.2467 36.1891 13.8264 36.1891H27.6372C30.2169 36.1891 32.3156 34.0904 32.3156 31.5108ZM30.8507 31.5108C30.8507 33.2827 29.4091 34.7242 27.6372 34.7242H13.8264C12.0544 34.7242 10.6129 33.2826 10.6129 31.5108V11.781C10.6129 10.009 12.0545 8.5675 13.8264 8.5675H27.6372C29.4092 8.5675 30.8507 10.0091 30.8507 11.781V31.5108Z" fill="#EB2D2D"/>
<path d="M20.7319 11.0487C20.5357 11.0487 20.3477 11.1274 20.2101 11.2671C19.9195 11.562 13.094 18.5596 13.094 24.6054C13.094 28.7329 16.3855 32.104 20.4813 32.2369C20.6471 32.2454 20.8168 32.2454 20.9825 32.2369C25.0782 32.1039 28.3697 28.7329 28.3697 24.6054C28.3697 18.5597 21.5442 11.562 21.2537 11.2671C21.1161 11.1274 20.9281 11.0487 20.7319 11.0487V11.0487ZM17.321 27.3677C17.321 24.9285 19.6627 21.978 20.7323 20.7575C21.8022 21.9767 24.1427 24.9235 24.1427 27.3677C24.1427 29.2484 22.6127 30.7785 20.7319 30.7785C18.8511 30.7785 17.321 29.2483 17.321 27.3677V27.3677ZM25.4566 28.5723C25.5549 28.1869 25.6075 27.7833 25.6075 27.3677C25.6075 23.6216 21.4313 19.3395 21.2536 19.1591C21.116 19.0193 20.928 18.9407 20.7318 18.9407C20.5356 18.9407 20.3476 19.0194 20.21 19.1591C20.0323 19.3395 15.8561 23.6216 15.8561 27.3677C15.8561 27.7834 15.9086 28.187 16.0071 28.5725C15.1042 27.4988 14.5587 26.1149 14.5587 24.6055C14.5587 20.0712 19.156 14.5979 20.7318 12.8555C22.3075 14.598 26.9047 20.0712 26.9047 24.6055C26.9048 26.1148 26.3595 27.4987 25.4566 28.5723V28.5723Z" fill="#EB2D2D"/>
<path d="M8.89396 41.4324H5.3587C4.95411 41.4324 4.62628 41.7603 4.62628 42.1648C4.62628 42.5693 4.95411 42.8972 5.3587 42.8972H8.89396C9.29855 42.8972 9.62638 42.5693 9.62638 42.1648C9.62638 41.7603 9.29855 41.4324 8.89396 41.4324Z" fill="#EB2D2D"/>
<path d="M5.3587 39.7405H7.90753C8.31212 39.7405 8.63995 39.4125 8.63995 39.0081C8.63995 38.6036 8.31212 38.2756 7.90753 38.2756H5.3587C4.95411 38.2756 4.62628 38.6036 4.62628 39.0081C4.62628 39.4125 4.95421 39.7405 5.3587 39.7405V39.7405Z" fill="#EB2D2D"/>
<path d="M45.5514 43.1844L44.3924 39.9212C44.2012 39.3826 43.8658 38.9072 43.4226 38.5465L40.6894 36.3222C40.6693 36.3059 40.6485 36.2912 40.6282 36.2755C41.0033 32.0119 41.1941 28.219 41.1941 24.9999C41.1941 16.1528 39.7313 5.45615 39.6159 4.62734V1.71875C39.6159 0.770996 38.8445 0 37.8963 0H33.201C32.7964 0 32.4686 0.32793 32.4686 0.732422C32.4686 1.13691 32.7964 1.46484 33.201 1.46484H37.8963C38.0367 1.46484 38.1511 1.57881 38.1511 1.71875V3.94629H3.31329V1.71875C3.31329 1.57871 3.42716 1.46484 3.5672 1.46484H29.783C30.1876 1.46484 30.5154 1.13691 30.5154 0.732422C30.5154 0.32793 30.1875 0 29.783 0H3.5671C2.61945 0 1.84835 0.771094 1.84835 1.71875V4.62803C1.73243 5.46084 0.269348 16.1548 0.269348 25C0.269348 33.8364 1.7295 44.5177 1.84806 45.3692V48.2811C1.84806 49.2289 2.61915 50 3.567 50H40.8168C41.8531 50 42.8186 49.4876 43.3991 48.6296L45.1956 45.9767C45.7497 45.1579 45.8826 44.1137 45.5514 43.1844V43.1844ZM27.2868 48.5352C26.8142 48.5352 26.3837 48.2755 26.1631 47.8573L25.1581 45.9538C24.9538 45.5672 24.9616 45.109 25.1783 44.7291L27.3357 40.9604C27.4911 40.6887 27.7398 40.4848 28.0346 40.3867L28.1556 40.3467C28.5397 40.2196 28.7479 39.8053 28.6208 39.4212C28.4937 39.0372 28.0799 38.829 27.6953 38.956L27.5733 38.9964C26.9348 39.2087 26.3988 39.6479 26.0643 40.2328L23.9065 44.0022C23.7992 44.1902 23.7169 44.3872 23.6573 44.5889H11.5895C11.1849 44.5889 10.857 44.9168 10.857 45.3213C10.857 45.7258 11.1849 46.0537 11.5895 46.0537H23.6359C23.6887 46.2537 23.7634 46.4498 23.8627 46.6378L24.8645 48.5352H3.567C3.42687 48.5352 3.3129 48.4212 3.3129 48.2811V46.0537H8.1715C8.57609 46.0537 8.90392 45.7258 8.90392 45.3213C8.90392 44.9168 8.57609 44.5889 8.1715 44.5889H3.22062C2.89269 42.1149 1.73419 32.8185 1.73419 25C1.73419 17.184 2.89269 7.88564 3.22062 5.41113H38.2438C38.5714 7.88564 39.7293 17.184 39.7293 25C39.7293 28.0541 39.5553 31.6369 39.2118 35.6601C38.7255 35.5826 38.2201 35.6199 37.7342 35.7819L33.5896 37.1639C33.1998 37.2935 32.8429 37.4991 32.535 37.7655C32.0528 37.6538 31.542 37.6736 31.0535 37.8364L30.9363 37.8755C30.5526 38.0033 30.3451 38.4181 30.4731 38.8019C30.6009 39.1856 31.0155 39.393 31.3994 39.2651L31.5167 39.2261C31.8258 39.1229 32.1542 39.1427 32.4419 39.2735C32.446 39.2753 32.45 39.2776 32.4542 39.2793C32.548 39.3231 32.6375 39.3786 32.7202 39.4459L35.0138 41.3128C35.1954 41.4608 35.332 41.6543 35.4095 41.8742L36.383 44.6123C36.5176 44.9912 36.4631 45.4162 36.2372 45.7496L34.7295 47.9766C34.4922 48.3264 34.0989 48.5352 33.6776 48.5352H27.2868ZM43.9825 45.1556L42.186 47.8085C41.8782 48.2636 41.3662 48.5352 40.8168 48.5352H36.1204L37.4499 46.5711C37.9361 45.8538 38.0532 44.9383 37.7632 44.1218L36.7903 41.3855C36.6241 40.9135 36.3298 40.4957 35.9388 40.1771L33.9782 38.5812C34.0027 38.5718 34.0273 38.562 34.0524 38.5537L38.1974 37.1717C38.7377 36.9917 39.3233 37.0987 39.7646 37.4583L42.4982 39.6828C42.733 39.8739 42.9108 40.1259 43.0121 40.4114L44.1715 43.6754C44.3469 44.1681 44.2763 44.7215 43.9825 45.1556V45.1556Z" fill="#EB2D2D"/>
</svg>
