<svg width="46" height="50" viewBox="0 0 46 50" fill="none" xmlns="http://www.w3.org/2000/svg">
<path d="M38.0087 27.1385L28.8487 36.2986L24.685 32.1349L20.1798 36.6401L28.8487 45.309L42.5139 31.6437L38.0087 27.1385ZM28.8487 42.9604L22.5284 36.6401L24.685 34.4835L28.8487 38.6471L38.0087 29.4871L40.1653 31.6437L28.8487 42.9604Z" fill="#EB2D2D"/>
<path d="M21.354 10.8254H34.6777V12.4909H21.354V10.8254Z" fill="#EB2D2D"/>
<path d="M21.354 14.9891H34.6777V16.6546H21.354V14.9891Z" fill="#EB2D2D"/>
<path d="M4.69946 21.651H18.8559V23.3165H4.69946V21.651Z" fill="#EB2D2D"/>
<path d="M4.69946 25.8146H15.5249V27.48H4.69946V25.8146Z" fill="#EB2D2D"/>
<path d="M18.8559 8.32727H4.69946V18.32H18.8559V8.32727ZM17.1904 16.6546H6.36492V9.99273H17.1904V16.6546Z" fill="#EB2D2D"/>
<path d="M38.8413 23.801V5.82904H41.4046L41.2549 4.86294C41.063 3.66589 40.4938 2.56317 39.6318 1.71418C38.5453 0.611465 37.0588 -0.00657693 35.5104 -7.12248e-05H6.36487C3.14455 0.00318163 0.539019 2.61197 0.535767 5.82904V47.4655H23.3187C27.5442 50.4061 33.035 50.8192 37.654 48.5422C42.2763 46.2685 45.295 41.6624 45.5422 36.5197C45.7862 31.3769 43.2197 26.5042 38.8413 23.801ZM35.5104 1.66539C37.1661 1.67189 38.6624 2.651 39.3325 4.16358H11.95C11.6833 3.23326 11.1791 2.39077 10.4862 1.71418C10.4667 1.69792 10.4472 1.6784 10.4277 1.66539H35.5104ZM2.20123 45.8001V5.82904C2.20123 4.14406 3.21612 2.62498 4.77423 1.98091C6.32909 1.3401 8.12141 1.69792 9.31196 2.88846C9.92349 3.49349 10.3268 4.28068 10.4602 5.12967L10.5773 5.82904H37.1759V22.9098C30.9467 20.0895 23.5952 22.1258 19.7048 27.7467C15.8144 33.3644 16.4975 40.9631 21.328 45.8001H2.20123ZM38.8413 45.8001C38.5746 45.992 38.3079 46.1839 38.0249 46.3595L37.5662 46.6328C37.01 46.9581 36.4277 47.2378 35.8259 47.4655C31.8119 49.0074 27.2905 48.3763 23.8522 45.8001C23.6603 45.6602 23.4749 45.5073 23.3025 45.3577C19.2917 41.978 17.8182 36.4514 19.617 31.5266C21.4158 26.5985 26.0999 23.3196 31.3468 23.3164C33.3765 23.3066 35.3803 23.801 37.1759 24.7574L37.2247 24.7834C40.9947 26.7904 43.4766 30.5897 43.8019 34.8477C44.1305 39.1057 42.2568 43.2368 38.8413 45.8001Z" fill="#EB2D2D"/>
<path d="M4.69946 29.9783H15.5249V31.6437H4.69946V29.9783Z" fill="#EB2D2D"/>
</svg>
