<svg width="50" height="50" viewBox="0 0 50 50" fill="none" xmlns="http://www.w3.org/2000/svg">
<path d="M33.3939 32.1499C32.2092 32.1499 31.2455 31.3058 31.2455 30.2684C31.2455 29.2308 32.2092 28.3868 33.3939 28.3868C34.5786 28.3868 35.5423 29.2308 35.5423 30.2684C35.5423 30.814 35.9797 31.2565 36.5189 31.2565C37.0582 31.2565 37.4955 30.814 37.4955 30.2684C37.4955 28.4576 36.1621 26.9351 34.3705 26.5218V26.0079C34.3705 25.4623 33.9332 25.0198 33.3939 25.0198C32.8547 25.0198 32.4174 25.4623 32.4174 26.0079V26.5218C30.6258 26.9351 29.2924 28.4576 29.2924 30.2684C29.2924 32.3956 31.1323 34.1262 33.3939 34.1262C34.5786 34.1262 35.5423 34.9703 35.5423 36.0078C35.5423 37.0453 34.5786 37.8894 33.3939 37.8894C32.2092 37.8894 31.2455 37.0453 31.2455 36.0078C31.2455 35.4621 30.8082 35.0197 30.2689 35.0197C29.7297 35.0197 29.2924 35.4621 29.2924 36.0078C29.2924 37.8186 30.6258 39.3411 32.4174 39.7543V40.1812C32.4174 40.7269 32.8547 41.1694 33.3939 41.1694C33.9332 41.1694 34.3705 40.7269 34.3705 40.1812V39.7543C36.1621 39.3411 37.4955 37.8186 37.4955 36.0078C37.4955 33.8805 35.6555 32.1499 33.3939 32.1499Z" fill="#EB2D2D"/>
<path d="M44.09 26.2722C42.8143 24.2609 41.017 22.6514 38.8925 21.618C38.4063 21.3814 37.8228 21.5885 37.5892 22.0804C37.3555 22.5723 37.5601 23.1627 38.0462 23.3991C41.7485 25.1999 44.1406 29.0476 44.1406 33.2016C44.1406 34.979 43.7076 36.7418 42.8885 38.2995C42.6352 38.7812 42.8158 39.3796 43.2919 39.6359C43.438 39.7146 43.5951 39.7519 43.7497 39.7519C44.0992 39.7519 44.4371 39.5616 44.6127 39.2277C45.5816 37.3854 46.0937 35.3016 46.0937 33.2016C46.0937 30.7352 45.4008 28.339 44.09 26.2722Z" fill="#EB2D2D"/>
<path d="M34.9289 20.3559L34.8632 20.3558C34.3239 20.3558 33.8866 20.7982 33.8866 21.344C33.8866 21.8897 34.3239 22.3321 34.8632 22.3321L34.9197 22.3322C34.9213 22.3322 34.9227 22.3322 34.9244 22.3322C35.4616 22.3322 35.8983 21.8929 35.9009 21.3487C35.9033 20.803 35.4681 20.3585 34.9289 20.3559Z" fill="#EB2D2D"/>
<path d="M28.7506 43.0041C25.0485 41.2032 22.6564 37.3555 22.6564 33.2016C22.6564 31.4241 23.0894 29.6614 23.9084 28.1037C24.1617 27.622 23.9812 27.0236 23.505 26.7672C23.029 26.5109 22.4374 26.6936 22.1842 27.1754C21.2154 29.0178 20.7032 31.1016 20.7032 33.2016C20.7032 35.668 21.3961 38.064 22.707 40.1309C23.9826 42.1423 25.7799 43.7518 27.9044 44.7853C28.0408 44.8517 28.185 44.883 28.3269 44.883C28.6905 44.883 29.0396 44.6766 29.2077 44.3228C29.4412 43.8309 29.2367 43.2405 28.7506 43.0041Z" fill="#EB2D2D"/>
<path d="M31.9338 44.0711L31.8772 44.0709C31.3354 44.0699 30.8987 44.5086 30.8963 45.0544C30.8937 45.6002 31.3291 46.0446 31.8683 46.0472L31.9338 46.0474C32.473 46.0474 32.9103 45.6049 32.9103 45.0593C32.9103 44.5136 32.473 44.0711 31.9338 44.0711Z" fill="#EB2D2D"/>
<path d="M37.8328 17.0126C37.714 16.7261 37.5684 16.456 37.399 16.2055H39.9413C42.4183 16.2055 44.4335 14.1664 44.4335 11.6601C44.4335 9.15374 42.4183 7.11461 39.9413 7.11461H32.121C32.6182 6.38319 32.9101 5.49831 32.9101 4.54545C32.9101 2.03913 30.8949 0 28.4179 0H4.49218C2.01523 0 0 2.03913 0 4.54545C0 7.05176 2.01523 9.09089 4.49218 9.09089H12.3125C11.8153 9.82231 11.5234 10.7072 11.5234 11.6601C11.5234 12.6129 11.8152 13.4978 12.3125 14.2292H9.76561C7.28866 14.2292 5.27343 16.2683 5.27343 18.7747C5.27343 20.2141 5.93886 21.4986 6.97411 22.332C5.93886 23.1654 5.27343 24.4499 5.27343 25.8893C5.27343 27.3287 5.93886 28.6132 6.97411 29.4466C5.93886 30.28 5.27343 31.5645 5.27343 33.0039C5.27343 34.4433 5.93886 35.7278 6.97411 36.5612C5.93886 37.3946 5.27343 38.6791 5.27343 40.1185C5.27343 42.6248 7.28866 44.6639 9.76561 44.6639H21.2744C24.3062 47.9453 28.6193 50 33.3985 50C42.5526 50 50 42.4642 50 33.2016C50 25.4924 44.8408 18.9805 37.8328 17.0126ZM39.9413 9.09089C41.3414 9.09089 42.4804 10.2435 42.4804 11.6601C42.4804 13.0767 41.3414 14.2292 39.9413 14.2292H33.6913H16.0156C14.6155 14.2292 13.4765 13.0767 13.4765 11.6601C13.4765 10.2435 14.6155 9.09089 16.0156 9.09089H39.9413ZM4.49218 7.11461C3.09208 7.11461 1.95312 5.96204 1.95312 4.54545C1.95312 3.12885 3.09208 1.97628 4.49218 1.97628H28.4179C29.818 1.97628 30.957 3.12885 30.957 4.54545C30.957 5.96204 29.818 7.11461 28.4179 7.11461H4.49218ZM9.76561 16.2055H33.6913C34.0847 16.2055 34.4614 16.298 34.7993 16.4636C34.3373 16.4244 33.8703 16.4032 33.3985 16.4032C28.814 16.4032 24.6578 18.2934 21.6505 21.3438H9.76561C8.36561 21.3438 7.22655 20.1913 7.22655 18.7747C7.22655 17.3581 8.36561 16.2055 9.76561 16.2055ZM9.76561 23.3201H19.9819C18.8733 24.857 18.0162 26.5904 17.4718 28.4584H9.76561C8.36551 28.4584 7.22655 27.306 7.22655 25.8893C7.22655 24.4727 8.36551 23.3201 9.76561 23.3201ZM9.76561 30.4347H17.0234C16.8753 31.3352 16.7969 32.2592 16.7969 33.2016C16.7969 34.0066 16.8545 34.7981 16.9632 35.5731H9.76561C8.36551 35.5731 7.22655 34.4206 7.22655 33.0039C7.22655 31.5872 8.36551 30.4347 9.76561 30.4347ZM9.76561 42.6877C8.36551 42.6877 7.22655 41.5352 7.22655 40.1185C7.22655 38.7018 8.36551 37.5493 9.76561 37.5493H17.3619C17.8547 39.4083 18.6551 41.1408 19.7049 42.6877H9.76561ZM33.3985 48.0237C25.3213 48.0237 18.7501 41.3745 18.7501 33.2016C18.7501 25.0287 25.3213 18.3795 33.3985 18.3795C41.4756 18.3795 48.0469 25.0287 48.0469 33.2016C48.0469 41.3745 41.4756 48.0237 33.3985 48.0237Z" fill="#EB2D2D"/>
</svg>
