<svg width="50" height="50" viewBox="0 0 50 50" fill="none" xmlns="http://www.w3.org/2000/svg">
<path d="M48.4359 24.6656C46.7642 23.2878 44.1218 23.1697 42.3875 25.0309L38.0821 29.6527C37.5255 27.8637 35.8547 26.5611 33.8852 26.5611H26.202C25.619 26.5611 25.4238 26.3384 24.4111 25.5582C20.55 22.1922 14.7506 22.203 10.9012 25.5905L8.07715 28.0766C6.80772 27.4047 5.32539 27.3881 4.04902 28.0258L0.809962 29.6449C0.0863289 30.0072 -0.206542 30.8869 0.154688 31.6106L8.94326 49.1876C9.30557 49.9113 10.1854 50.2041 10.909 49.8429L14.148 48.2229C15.7446 47.4251 16.6332 45.7962 16.5756 44.1382H33.8851C37.0948 44.1382 40.162 42.6051 42.0877 40.0369L49.1195 30.6606C50.4837 28.8432 50.2679 26.1782 48.4359 24.6656ZM12.8375 45.6029L10.9089 46.5676L3.42988 31.6106L5.35947 30.6458C6.08311 30.2845 6.96191 30.5765 7.32422 31.3011L13.4928 43.6382C13.8541 44.3617 13.5611 45.2406 12.8375 45.6029ZM46.7759 28.9028L39.7441 38.2791C38.3683 40.114 36.1779 41.2086 33.8852 41.2086H15.5532L10.0643 30.2298L12.8365 27.7896C15.5951 25.3629 19.7551 25.3629 22.5137 27.7896C24.1386 29.2201 25.1492 29.4907 26.202 29.4907H33.8851C34.6927 29.4907 35.3498 30.1479 35.3498 30.9554C35.3498 31.7629 34.6926 32.4201 33.8851 32.4201H26.4041C25.5955 32.4201 24.9394 33.0764 24.9394 33.8849C24.9394 34.6934 25.5956 35.3496 26.4041 35.3496H34.8665C36.0822 35.3496 37.2541 34.8399 38.0821 33.9503L44.531 27.0279C45.1208 26.395 46.025 26.4478 46.5797 26.9331C47.1597 27.4408 47.2223 28.309 46.7759 28.9028Z" fill="#EB2D2D"/>
<path d="M30.7994 9.99551C31.8022 8.94385 32.4204 7.52207 32.4204 5.95664C32.4204 2.73223 29.8151 0 26.5614 0C23.3321 0 20.6048 2.72734 20.6048 5.95664C20.6048 7.47412 21.1995 8.90664 22.2795 10.0072C19.601 11.5091 17.6753 14.3917 17.6753 17.7724V19.2371C17.6753 20.0456 18.3315 20.7019 19.14 20.7019H33.8852C34.6937 20.7019 35.35 20.0456 35.35 19.2371V17.7724C35.3499 14.4581 33.5269 11.5306 30.7994 9.99551ZM26.5614 2.92959C28.1492 2.92959 29.4909 4.31621 29.4909 5.95674C29.4909 7.57188 28.1766 8.88623 26.5614 8.88623C24.9209 8.88623 23.5343 7.54453 23.5343 5.95674C23.5343 4.34453 24.9492 2.92959 26.5614 2.92959ZM20.6048 17.7724C20.6048 14.5431 23.3321 11.8157 26.5614 11.8157C29.7917 11.8157 32.4204 14.4874 32.4204 17.7724H20.6048Z" fill="#EB2D2D"/>
</svg>
