<svg width="65" height="60" viewBox="0 0 65 60" fill="none" xmlns="http://www.w3.org/2000/svg">
<path d="M6.3 22.3C5.22 22.3 4.23 22.03 3.33 21.49C2.45 20.93 1.74 20.2 1.2 19.3C0.68 18.38 0.42 17.37 0.42 16.27V14.89C0.42 14.79 0.47 14.74 0.57 14.74H3.93C4.01 14.74 4.05 14.79 4.05 14.89V16.27C4.05 16.93 4.27 17.5 4.71 17.98C5.15 18.44 5.68 18.67 6.3 18.67C6.92 18.67 7.45 18.43 7.89 17.95C8.33 17.47 8.55 16.91 8.55 16.27C8.55 15.53 8.07 14.89 7.11 14.35C6.79 14.17 6.29 13.89 5.61 13.51C4.93 13.13 4.29 12.77 3.69 12.43C2.59 11.79 1.77 10.99 1.23 10.03C0.71 9.05 0.45 7.95 0.45 6.73C0.45 5.61 0.72 4.61 1.26 3.73C1.8 2.83 2.51 2.12 3.39 1.6C4.29 1.08 5.26 0.819999 6.3 0.819999C7.36 0.819999 8.33 1.09 9.21 1.63C10.11 2.15 10.82 2.86 11.34 3.76C11.88 4.64 12.15 5.63 12.15 6.73V9.19C12.15 9.27 12.11 9.31 12.03 9.31H8.67C8.59 9.31 8.55 9.27 8.55 9.19L8.52 6.73C8.52 6.03 8.3 5.46 7.86 5.02C7.42 4.58 6.9 4.36 6.3 4.36C5.68 4.36 5.15 4.6 4.71 5.08C4.27 5.54 4.05 6.09 4.05 6.73C4.05 7.39 4.19 7.94 4.47 8.38C4.75 8.82 5.26 9.24 6 9.64C6.1 9.7 6.29 9.81 6.57 9.97C6.87 10.11 7.19 10.28 7.53 10.48C7.87 10.66 8.17 10.82 8.43 10.96C8.71 11.1 8.88 11.19 8.94 11.23C9.94 11.79 10.73 12.48 11.31 13.3C11.89 14.1 12.18 15.09 12.18 16.27C12.18 17.41 11.91 18.44 11.37 19.36C10.85 20.26 10.14 20.98 9.24 21.52C8.36 22.04 7.38 22.3 6.3 22.3ZM14.3864 22C14.3064 22 14.2664 21.95 14.2664 21.85L14.2964 1.24C14.2964 1.16 14.3364 1.12 14.4164 1.12H24.0464C24.1264 1.12 24.1664 1.17 24.1664 1.27V4.63C24.1664 4.71 24.1264 4.75 24.0464 4.75H17.8964V9.43H24.0464C24.1264 9.43 24.1664 9.47 24.1664 9.55L24.1964 12.94C24.1964 13.02 24.1564 13.06 24.0764 13.06H17.8964V18.31H24.0764C24.1564 18.31 24.1964 18.36 24.1964 18.46V21.88C24.1964 21.96 24.1564 22 24.0764 22H14.3864ZM25.5511 21.85L29.2711 1.24C29.2911 1.16 29.3411 1.12 29.4211 1.12H33.7711C33.8511 1.12 33.9011 1.16 33.9211 1.24L37.4911 21.85C37.5111 21.95 37.4711 22 37.3711 22H34.0411C33.9611 22 33.9111 21.95 33.8911 21.85L33.5611 19.66H29.4811L29.1511 21.85C29.1311 21.95 29.0811 22 29.0011 22H25.6711C25.5911 22 25.5511 21.95 25.5511 21.85ZM30.0811 16.45H32.9611L31.7311 8.02L31.5511 6.91L31.4311 8.02L30.0811 16.45ZM4.2 60C4.12 60 4.08 59.95 4.08 59.85V42.75H0.18C0.08 42.75 0.03 42.7 0.03 42.6L0.06 39.24C0.06 39.16 0.1 39.12 0.18 39.12H11.58C11.68 39.12 11.73 39.16 11.73 39.24V42.6C11.73 42.7 11.69 42.75 11.61 42.75H7.68L7.71 59.85C7.71 59.95 7.67 60 7.59 60H4.2ZM13.3317 60C13.2517 60 13.2117 59.95 13.2117 59.85L13.2717 39.24C13.2717 39.16 13.3117 39.12 13.3917 39.12H19.4517C20.5317 39.12 21.5217 39.39 22.4217 39.93C23.3417 40.45 24.0717 41.16 24.6117 42.06C25.1517 42.94 25.4217 43.94 25.4217 45.06C25.4217 45.8 25.3117 46.47 25.0917 47.07C24.8717 47.65 24.6117 48.15 24.3117 48.57C24.0117 48.97 23.7417 49.27 23.5017 49.47C24.5817 50.67 25.1217 52.08 25.1217 53.7L25.1517 59.85C25.1517 59.95 25.1017 60 25.0017 60H21.6117C21.5317 60 21.4917 59.97 21.4917 59.91V53.7C21.4917 52.98 21.2317 52.36 20.7117 51.84C20.2117 51.3 19.5917 51.03 18.8517 51.03H16.8717L16.8417 59.85C16.8417 59.95 16.8017 60 16.7217 60H13.3317ZM16.8717 47.43H19.4517C20.0717 47.43 20.6217 47.2 21.1017 46.74C21.5817 46.28 21.8217 45.72 21.8217 45.06C21.8217 44.42 21.5817 43.87 21.1017 43.41C20.6417 42.95 20.0917 42.72 19.4517 42.72H16.8717V47.43ZM26.6644 59.85L30.3844 39.24C30.4044 39.16 30.4544 39.12 30.5344 39.12H34.8844C34.9644 39.12 35.0144 39.16 35.0344 39.24L38.6044 59.85C38.6244 59.95 38.5844 60 38.4844 60H35.1544C35.0744 60 35.0244 59.95 35.0044 59.85L34.6744 57.66H30.5944L30.2644 59.85C30.2444 59.95 30.1944 60 30.1144 60H26.7844C26.7044 60 26.6644 59.95 26.6644 59.85ZM31.1944 54.45H34.0744L32.8444 46.02L32.6644 44.91L32.5444 46.02L31.1944 54.45ZM40.6371 60C40.5371 60 40.4871 59.95 40.4871 59.85L40.5471 39.24C40.5471 39.16 40.5871 39.12 40.6671 39.12L46.2771 39.09C47.3771 39.07 48.3771 39.33 49.2771 39.87C50.1971 40.41 50.9271 41.14 51.4671 42.06C52.0071 42.96 52.2771 43.96 52.2771 45.06V53.67C52.2771 54.83 51.9971 55.89 51.4371 56.85C50.8771 57.79 50.1271 58.54 49.1871 59.1C48.2471 59.66 47.1871 59.95 46.0071 59.97L40.6371 60ZM44.1471 56.31H46.0071C46.7471 56.31 47.3671 56.05 47.8671 55.53C48.3871 55.01 48.6471 54.39 48.6471 53.67V45.03C48.6471 44.39 48.4071 43.84 47.9271 43.38C47.4671 42.9 46.9171 42.67 46.2771 42.69L44.1771 42.72L44.1471 56.31ZM54.7575 60C54.6775 60 54.6375 59.95 54.6375 59.85L54.6675 39.24C54.6675 39.16 54.7075 39.12 54.7875 39.12H64.4175C64.4975 39.12 64.5375 39.17 64.5375 39.27V42.63C64.5375 42.71 64.4975 42.75 64.4175 42.75H58.2675V47.43H64.4175C64.4975 47.43 64.5375 47.47 64.5375 47.55L64.5675 50.94C64.5675 51.02 64.5275 51.06 64.4475 51.06H58.2675V56.31H64.4475C64.5275 56.31 64.5675 56.36 64.5675 56.46V59.88C64.5675 59.96 64.5275 60 64.4475 60H54.7575Z" fill="black"/>
</svg>
