<svg width="50" height="50" viewBox="0 0 50 50" fill="none" xmlns="http://www.w3.org/2000/svg">
<g clip-path="url(#clip0)">
<path d="M34.8629 15.3597C34.6816 15.3598 34.5078 15.4319 34.3797 15.5601L22.4742 27.4656L15.6226 20.6136C15.4921 20.4901 15.3192 20.4213 15.1394 20.4213C14.9597 20.4213 14.7868 20.4901 14.6562 20.6136L11.8941 23.3761C11.766 23.5043 11.6941 23.6781 11.6941 23.8594C11.6941 24.0406 11.766 24.2144 11.8941 24.3426L21.9922 34.4398C22.0556 34.5033 22.1309 34.5537 22.2138 34.5881C22.2967 34.6225 22.3856 34.6402 22.4754 34.6402C22.5651 34.6402 22.654 34.6225 22.7369 34.5881C22.8198 34.5537 22.8951 34.5033 22.9586 34.4398L38.1082 19.289C38.2363 19.1608 38.3083 18.9869 38.3083 18.8056C38.3083 18.6244 38.2363 18.4505 38.1082 18.3222L35.3461 15.5601C35.2179 15.4319 35.0441 15.3598 34.8629 15.3597V15.3597ZM22.4742 32.9898L13.3441 23.8594L15.141 22.0625L21.9922 28.9152C22.0556 28.9787 22.1309 29.0291 22.2138 29.0635C22.2967 29.0979 22.3856 29.1156 22.4754 29.1156C22.5651 29.1156 22.654 29.0979 22.7369 29.0635C22.8198 29.0291 22.8951 28.9787 22.9586 28.9152L34.8629 17.0101L36.6597 18.807L22.4742 32.9898Z" fill="#EB2D2D"/>
<path d="M25 6.37976C21.3172 6.37976 17.7172 7.47182 14.6551 9.51785C11.593 11.5639 9.20639 14.472 7.79706 17.8744C6.38774 21.2768 6.01899 25.0207 6.73746 28.6327C7.45593 32.2447 9.22934 35.5625 11.8334 38.1666C14.4375 40.7707 17.7554 42.5441 21.3673 43.2626C24.9793 43.9811 28.7233 43.6123 32.1257 42.203C35.5281 40.7937 38.4362 38.4071 40.4822 35.345C42.5282 32.2829 43.6203 28.6828 43.6203 25.0001C43.6147 20.0634 41.6511 15.3305 38.1604 11.8397C34.6696 8.34891 29.9367 6.38534 25 6.37976V6.37976ZM25 42.2532C21.5876 42.2532 18.2519 41.2413 15.4147 39.3455C12.5774 37.4497 10.366 34.7552 9.06018 31.6026C7.75433 28.45 7.41266 24.9809 8.07838 21.6342C8.74409 18.2874 10.3873 15.2132 12.8002 12.8003C15.2131 10.3874 18.2873 8.74418 21.6341 8.07846C24.9808 7.41275 28.4499 7.75442 31.6025 9.06026C34.7551 10.3661 37.4496 12.5775 39.3454 15.4147C41.2412 18.252 42.2531 21.5877 42.2531 25.0001C42.2479 29.5743 40.4285 33.9597 37.1941 37.1942C33.9596 40.4286 29.5742 42.248 25 42.2532V42.2532Z" fill="#EB2D2D"/>
<path d="M49.2286 27.1931C49.7306 26.5726 50.0044 25.7986 50.0044 25.0005C50.0044 24.2024 49.7306 23.4285 49.2286 22.8079L48.1083 21.4095C47.8936 21.1411 47.7466 20.825 47.6798 20.4878C47.6129 20.1507 47.6282 19.8024 47.7243 19.4724L48.2243 17.7572C48.4439 16.9902 48.3972 16.1714 48.0917 15.4345C47.7862 14.6975 47.2401 14.0857 46.5423 13.699L44.9771 12.8396C44.6756 12.6745 44.4182 12.4392 44.2268 12.1536C44.0354 11.868 43.9156 11.5406 43.8775 11.199L43.6822 9.41965C43.5986 8.62554 43.2449 7.88419 42.6803 7.31956C42.1157 6.75494 41.3743 6.40127 40.5802 6.3177L38.8009 6.12239C38.4593 6.08439 38.1318 5.96465 37.8462 5.77332C37.5607 5.58198 37.3254 5.32468 37.1603 5.02317L36.3009 3.45755C35.9201 2.75407 35.3089 2.20296 34.5699 1.8967C33.831 1.59043 33.0091 1.54765 32.2423 1.77552L30.5275 2.27512C30.1973 2.37107 29.8489 2.38623 29.5116 2.31934C29.1744 2.25244 28.8581 2.10545 28.5896 1.89075L27.1911 0.770437C26.5705 0.268703 25.7966 -0.00500488 24.9986 -0.00500488C24.2005 -0.00500488 23.4266 0.268703 22.806 0.770437L21.4076 1.89075C21.1389 2.105 20.8228 2.25168 20.4857 2.3185C20.1487 2.38531 19.8005 2.3703 19.4704 2.27473L17.7552 1.77473C16.9882 1.55501 16.1694 1.6017 15.4324 1.90718C14.6954 2.21266 14.0837 2.7589 13.697 3.45676L12.8376 5.022C12.6725 5.32352 12.4372 5.58085 12.1517 5.77224C11.8661 5.96364 11.5387 6.08347 11.197 6.12161L9.41771 6.31692C8.6236 6.40049 7.88225 6.75416 7.31762 7.31878C6.753 7.88341 6.39933 8.62476 6.31576 9.41887L6.12045 11.1982C6.08244 11.5398 5.96271 11.8673 5.77138 12.1528C5.58004 12.4384 5.32274 12.6737 5.02123 12.8388L3.4556 13.6982C2.75228 14.0791 2.20131 14.6903 1.89507 15.4293C1.58883 16.1682 1.54593 16.99 1.77357 17.7568L2.27396 19.4712C2.36991 19.8014 2.38507 20.1498 2.31818 20.4871C2.25128 20.8243 2.10429 21.1405 1.88959 21.4091L0.769277 22.8075C0.267338 23.4281 -0.00650024 24.202 -0.00650024 25.0001C-0.00650024 25.7982 0.267338 26.5722 0.769277 27.1927L1.88959 28.5911C2.10433 28.8595 2.25133 29.1756 2.31816 29.5128C2.38499 29.85 2.3697 30.1982 2.27357 30.5282L1.77357 32.2435C1.55384 33.0104 1.60043 33.8292 1.90575 34.5662C2.21107 35.3033 2.75712 35.9152 3.45482 36.3021L5.02006 37.1614C5.32157 37.3266 5.57891 37.5619 5.7703 37.8474C5.9617 38.133 6.08153 38.4604 6.11967 38.8021L6.31498 40.5814C6.39855 41.3755 6.75222 42.1168 7.31684 42.6815C7.88147 43.2461 8.62282 43.5998 9.41693 43.6833L11.1962 43.8786C11.5379 43.9166 11.8653 44.0364 12.1509 44.2277C12.4365 44.419 12.6718 44.6763 12.8369 44.9779L13.6962 46.5435C14.077 47.247 14.6882 47.7981 15.4272 48.1043C16.1662 48.4106 16.988 48.4534 17.7548 48.2255L19.4693 47.7251C19.7995 47.6295 20.1478 47.6145 20.485 47.6813C20.8222 47.7482 21.1385 47.8951 21.4072 48.1095L22.8056 49.2298C23.4261 49.7317 24.2001 50.0056 24.9982 50.0056C25.7963 50.0056 26.5702 49.7317 27.1908 49.2298L28.5892 48.1095C28.8576 47.8948 29.1737 47.7479 29.5109 47.6811C29.848 47.6142 30.1963 47.6295 30.5263 47.7255L32.2415 48.2255C33.0083 48.4531 33.83 48.4102 34.5688 48.104C35.3077 47.7977 35.9188 47.2468 36.2997 46.5435L37.1591 44.9782C37.3242 44.6767 37.5595 44.4194 37.8451 44.228C38.1306 44.0366 38.4581 43.9168 38.7997 43.8786L40.579 43.6833C41.3732 43.5998 42.1145 43.2461 42.6791 42.6815C43.2438 42.1168 43.5974 41.3755 43.681 40.5814L43.8763 38.8021C43.9143 38.4604 44.034 38.133 44.2254 37.8474C44.4167 37.5618 44.674 37.3265 44.9755 37.1614L46.5411 36.3021C47.2445 35.9211 47.7954 35.3099 48.1017 34.571C48.4079 33.832 48.4508 33.0103 48.2232 32.2435L47.7228 30.529C47.6268 30.1989 47.6117 29.8505 47.6786 29.5132C47.7455 29.1759 47.8925 28.8597 48.1072 28.5911L49.2286 27.1931ZM47.0411 27.7372C46.6893 28.1772 46.4484 28.6953 46.3388 29.2479C46.2292 29.8005 46.2541 30.3713 46.4115 30.9122L46.9122 32.6267C47.0511 33.0946 47.0248 33.5959 46.8379 34.0467C46.651 34.4976 46.3148 34.8704 45.8857 35.1029L44.3197 35.9622C43.8253 36.2332 43.4035 36.6193 43.09 37.0879C42.7766 37.5564 42.5806 38.0937 42.5189 38.654L42.3236 40.4333C42.2723 40.9178 42.0564 41.3701 41.7119 41.7146C41.3673 42.0591 40.9151 42.275 40.4306 42.3263L38.6509 42.5216C38.0906 42.5836 37.5535 42.7796 37.085 43.0932C36.6165 43.4067 36.2305 43.8285 35.9595 44.3228L35.1001 45.8884C34.8676 46.3173 34.4947 46.6533 34.0441 46.8402C33.5934 47.027 33.0922 47.0534 32.6244 46.915L30.9095 46.4146C30.3687 46.257 29.7979 46.2319 29.2453 46.3414C28.6928 46.4509 28.1747 46.6919 27.7349 47.0439L26.3365 48.1642C25.9578 48.4707 25.4854 48.6379 24.9982 48.6379C24.511 48.6379 24.0386 48.4707 23.6599 48.1642L22.2615 47.0439C21.8215 46.692 21.3034 46.451 20.7508 46.3415C20.1982 46.2319 19.6274 46.2568 19.0865 46.4142L17.3724 46.9146C16.9045 47.0529 16.4033 47.0265 15.9526 46.8396C15.5019 46.6528 15.129 46.3168 14.8962 45.888L14.0369 44.322C13.7659 43.8276 13.3798 43.4058 12.9112 43.0924C12.4426 42.7789 11.9054 42.583 11.3451 42.5212L9.56576 42.3259C9.08126 42.2746 8.62901 42.0587 8.28451 41.7142C7.94 41.3697 7.72408 40.9174 7.67279 40.4329L7.47748 38.6532C7.41549 38.0929 7.21943 37.5558 6.90591 37.0874C6.59239 36.6189 6.17062 36.2328 5.67631 35.9618L4.11068 35.1025C3.68499 34.8665 3.3518 34.4933 3.16545 34.0437C2.97909 33.5941 2.95056 33.0946 3.08451 32.6267L3.5849 30.9118C3.74236 30.371 3.76739 29.8002 3.65786 29.2477C3.54833 28.6952 3.30747 28.1771 2.95561 27.7372L1.83451 26.3388C1.52817 25.96 1.36105 25.4876 1.36105 25.0005C1.36105 24.5134 1.52817 24.041 1.83451 23.6622L2.95482 22.2638C3.30667 21.8238 3.54755 21.3057 3.65714 20.7531C3.76673 20.2006 3.74182 19.6297 3.58451 19.0888L3.08451 17.3743C2.9457 16.9065 2.97194 16.4051 3.15884 15.9543C3.34574 15.5035 3.68194 15.1306 4.11107 14.8982L5.67709 14.0388C6.17146 13.7678 6.59325 13.3817 6.90672 12.9132C7.22019 12.4446 7.41611 11.9074 7.47787 11.347L7.67318 9.5677C7.72483 9.083 7.94126 8.63069 8.28629 8.28637C8.63133 7.94205 9.08407 7.72656 9.56889 7.6759L11.3486 7.48059C11.9089 7.4186 12.446 7.22255 12.9145 6.90902C13.3829 6.5955 13.769 6.17374 14.04 5.67942L14.8994 4.1138C15.1352 3.68866 15.5079 3.35579 15.9569 3.16928C16.4059 2.98276 16.9047 2.95358 17.3724 3.08645L19.0872 3.58684C19.6281 3.74437 20.1989 3.76943 20.7514 3.6599C21.3039 3.55037 21.822 3.30947 22.2619 2.95755L23.6603 1.83645C24.039 1.53005 24.5114 1.36288 24.9986 1.36288C25.4857 1.36288 25.9581 1.53005 26.3369 1.83645L27.7353 2.95676C28.1754 3.30841 28.6935 3.54916 29.246 3.65874C29.7985 3.76833 30.3693 3.74353 30.9103 3.58645L32.6247 3.08645C33.0926 2.94816 33.5938 2.97466 34.0445 3.16151C34.4952 3.34836 34.8681 3.68424 35.1009 4.11301L35.9603 5.67903C36.2312 6.17341 36.6174 6.59519 37.0859 6.90866C37.5545 7.22213 38.0917 7.41805 38.6521 7.47981L40.4314 7.67512C40.9159 7.72641 41.3681 7.94233 41.7126 8.28684C42.0571 8.63134 42.2731 9.08359 42.3243 9.56809L42.5197 11.3478C42.5817 11.9081 42.7777 12.4452 43.0912 12.9137C43.4048 13.3822 43.8265 13.7682 44.3208 14.0392L45.8865 14.8986C46.3122 15.1345 46.6454 15.5077 46.8318 15.9573C47.0182 16.4069 47.0469 16.9064 46.913 17.3743L46.4126 19.0892C46.2552 19.63 46.2301 20.2008 46.3397 20.7533C46.4492 21.3059 46.6901 21.8239 47.0419 22.2638L48.1622 23.6622C48.4686 24.041 48.6357 24.5134 48.6357 25.0005C48.6357 25.4876 48.4686 25.96 48.1622 26.3388L47.0411 27.7372Z" fill="#EB2D2D"/>
</g>
<defs>
<clipPath id="clip0">
<rect width="50" height="50" fill="white"/>
</clipPath>
</defs>
</svg>
